<svg width="301.000000" height="218.500000" viewBox="0 0 301 218.5" fill="none" xmlns="http://www.w3.org/2000/svg" xmlns:xlink="http://www.w3.org/1999/xlink">
	<desc>
			Created with Pixso.
	</desc>
	<path d="M297.339 3.66117C294.898 1.22039 291.952 0 288.5 0L12.5 0C9.04822 0 6.10193 1.22039 3.66116 3.66117C1.2204 6.10194 0 9.04822 0 12.5L0 156.5C0 159.952 1.2204 162.898 3.66116 165.339C6.10196 167.78 9.04825 169 12.5 169L127.5 169L127.5 208.5L99.5 208.5C96.7386 208.5 94.5 210.739 94.5 213.5L94.5 217.5C94.5 218.052 94.9477 218.5 95.5 218.5L206.5 218.5C207.052 218.5 207.5 218.052 207.5 217.5L207.5 213.5C207.5 210.739 205.261 208.5 202.5 208.5L174.5 208.5L174.5 169L288.5 169C291.952 169 294.898 167.78 297.339 165.339C299.78 162.898 301 159.952 301 156.5L301 12.5C301 9.04823 299.78 6.10195 297.339 3.66117M12.5 5L288.5 5C290.571 5 292.339 5.73223 293.803 7.1967C295.268 8.66116 296 10.4289 296 12.5L296 156.5C296 158.571 295.268 160.339 293.803 161.803C292.339 163.268 290.571 164 288.5 164L12.5 164C10.4289 164 8.66116 163.268 7.19669 161.803C5.73224 160.339 5 158.571 5 156.5L5 12.5C5 10.4289 5.73224 8.66117 7.19669 7.1967C8.66116 5.73223 10.4289 5 12.5 5M192.5 153.5L106.5 153.5C105.395 153.5 104.5 154.395 104.5 155.5L104.5 157.5C104.5 158.604 105.395 159.5 106.5 159.5L192.5 159.5C193.605 159.5 194.5 158.604 194.5 157.5L194.5 155.5C194.5 154.395 193.605 153.5 192.5 153.5L192.5 153.5M155.5 173.5L145.5 173.5C144.395 173.5 143.5 174.395 143.5 175.5L143.5 206.5C143.5 207.605 144.395 208.5 145.5 208.5L155.5 208.5C156.605 208.5 157.5 207.605 157.5 206.5L157.5 175.5C157.5 174.395 156.605 173.5 155.5 173.5L155.5 173.5Z" fill-rule="evenodd" fill="#FFFFFF" fill-opacity="1.000000"/>
	<defs/>
</svg>
