<svg width="193.000000" height="219.000000" viewBox="0 0 193 219" fill="none" xmlns="http://www.w3.org/2000/svg" xmlns:xlink="http://www.w3.org/1999/xlink">
	<desc>
			Created with Pixso.
	</desc>
	<path d="M193 10C193 4.47715 188.523 0 183 0L10 0C4.47716 0 0 4.47715 0 10L0 209C0 214.523 4.47716 219 10 219L183 219C188.523 219 193 214.523 193 209L193 10M188 10C188 7.23858 185.761 5 183 5L10 5C7.23858 5 5 7.23858 5 10L5 209C5 211.761 7.23858 214 10 214L183 214C185.761 214 188 211.761 188 209L188 10M139 204L53 204C51.8954 204 51 204.895 51 206L51 208C51 209.104 51.8954 210 53 210L139 210C140.105 210 141 209.104 141 208L141 206C141 204.895 140.105 204 139 204L139 204Z" fill-rule="evenodd" fill="#FFFFFF" fill-opacity="1.000000"/>
	<defs/>
</svg>
