<svg width="124.256653" height="219.003082" viewBox="0 0 124.257 219.003" fill="none" xmlns="http://www.w3.org/2000/svg" xmlns:xlink="http://www.w3.org/1999/xlink">
	<desc>
			Created with Pixso.
	</desc>
	<path d="M110.757 0Q116.349 0 120.303 3.95406Q124.257 7.90811 124.257 13.5L124.257 205.503Q124.257 211.095 120.303 215.049Q116.349 219.003 110.757 219.003L13.5 219.003Q7.90814 219.003 3.95404 215.049Q0 211.095 0 205.503L0 13.5Q0 7.90812 3.95404 3.95406Q7.90814 0 13.5 0L110.757 0ZM35.8085 7L13.5 7Q10.8076 7 8.90381 8.9038Q7 10.8076 7 13.5L7 205.503Q7 208.195 8.90381 210.099Q10.8076 212.003 13.5 212.003L110.757 212.003Q113.449 212.003 115.353 210.099Q117.257 208.195 117.257 205.503L117.257 13.5Q117.257 10.8076 115.353 8.9038Q113.449 7 110.757 7L88.4481 7C88.5967 7.47352 88.6769 7.9774 88.6769 8.5L88.6769 10.2237C88.6769 12.9851 86.4384 15.2237 83.6769 15.2237L40.5796 15.2237C37.8182 15.2237 35.5796 12.9851 35.5796 10.2237L35.5796 8.5C35.5796 7.9774 35.6598 7.47352 35.8085 7Z" clip-rule="evenodd" fill-rule="evenodd" fill="#FFFFFF" fill-opacity="1.000000"/>
	<defs/>
</svg>
