<svg width="165.000000" height="197.000000" viewBox="0 0 165 197" fill="none" xmlns="http://www.w3.org/2000/svg" xmlns:xlink="http://www.w3.org/1999/xlink">
	<desc>
			Created with Pixso.
	</desc>
	<path d="M155 197L10 197C4.47715 197 0 192.523 0 187L0 10C0 4.47714 4.47715 0 10 0L121.927 0C124.622 0 127.203 1.08774 129.084 3.01672L162.158 36.9166C163.98 38.7843 165 41.2904 165 43.8998L165 187C165 192.523 160.523 197 155 197Z" fill-rule="evenodd" fill="#4D8EFF"/>
	<path d="M17.5933 98.9067L24.4927 100.862L19.7466 106.839L23.2402 109.212L27.1953 103.016L31.1943 109.432L34.688 106.949L30.0737 101.104L37.105 99.1484L35.8086 95.1274L29.1509 97.8301L29.5903 90.0078L25.2837 90.0078L25.7231 97.6763L18.8896 94.9297L17.5933 98.9067ZM108.582 98.2256L108.582 92.3809L102.232 92.3809L102.232 98.2256L98.7603 98.2256L98.7603 102.884L102.232 102.884L102.232 115.694Q102.364 122.439 109.043 122.439Q111.021 122.439 112.889 121.868L112.889 117.056Q112.076 117.21 111.021 117.21Q109.593 117.21 109.087 116.639Q108.582 116.067 108.582 114.749L108.582 102.884L112.647 102.884L112.647 98.2256L108.582 98.2256ZM94.5525 119.133Q97.0464 115.826 97.0464 110.333L97.0464 110.003Q97.0464 104.29 94.6074 101.038Q92.1685 97.7861 87.7739 97.7861Q84.0605 97.7861 81.7534 100.555L81.5337 98.2256L75.645 98.2256L75.645 131.141L81.9951 131.141L81.9951 119.935Q84.2144 122.439 87.8179 122.439Q92.0586 122.439 94.5525 119.133ZM66.2188 98.2256L61.8022 114.244L57.3857 98.2256L50.75 98.2256L58.77 122L64.8345 122L72.8545 98.2256L66.2188 98.2256ZM129.236 98.2256L125.237 105.323L121.326 98.2256L114.515 98.2256L121.26 109.871L114.207 122L121.041 122L125.259 114.529L129.5 122L136.312 122L129.258 109.871L136.026 98.2256L129.236 98.2256ZM89.5208 104.751Q90.6963 106.553 90.6963 109.871Q90.6963 117.32 86.1479 117.32Q83.1597 117.32 81.9951 114.969L81.9951 105.235Q83.1157 102.95 86.104 102.95Q88.3452 102.95 89.5208 104.751ZM41.1809 116.419Q40.1592 117.364 40.1592 118.88Q40.1592 120.374 41.1699 121.308Q42.1807 122.242 43.7407 122.242Q45.3228 122.242 46.3335 121.308Q47.3442 120.374 47.3442 118.88Q47.3442 117.364 46.3225 116.419Q45.3008 115.474 43.7407 115.474Q42.2026 115.474 41.1809 116.419Z" fill="#FFFFFFFF"/>
	<defs/>
</svg>
