<svg width="24" height="24" viewBox="0 0 24 24" fill="none" xmlns="http://www.w3.org/2000/svg">
<path d="M2 7.81003V16.19C2 17.68 2.36 18.92 3.05 19.87C3.34 20.29 3.71 20.66 4.13 20.95C4.95 21.55 5.99 21.9 7.22 21.98V2.03003C3.94 2.24003 2 4.37003 2 7.81003Z" fill="white"/>
<path d="M20.9497 4.13C20.6597 3.71 20.2897 3.34 19.8697 3.05C18.9197 2.36 17.6797 2 16.1897 2H8.71973V22H16.1897C19.8297 22 21.9997 19.83 21.9997 16.19V7.81C21.9997 6.32 21.6397 5.08 20.9497 4.13ZM15.4997 14.03C15.7897 14.32 15.7897 14.8 15.4997 15.09C15.3497 15.24 15.1597 15.31 14.9697 15.31C14.7797 15.31 14.5897 15.24 14.4397 15.09L11.8797 12.53C11.5897 12.24 11.5897 11.76 11.8797 11.47L14.4397 8.91C14.7297 8.62 15.2097 8.62 15.4997 8.91C15.7897 9.2 15.7897 9.68 15.4997 9.97L13.4797 12L15.4997 14.03Z" fill="white"/>
</svg>
